<svg id="Layer_1" data-name="Layer 1" xmlns="http://www.w3.org/2000/svg" viewBox="0 0 1704.51 471.16"><defs><style>.cls-1{fill:#231f20;}</style></defs><title>checkout_logo</title><path class="cls-1" d="M9.27,345.49V332.71q14.32,0,24.86-7.27T47,308.75q2.34-9.45,2.35-30.24V123.92S49.42,88.83,7.75,73.33c128.19-17.79,142.71,27.83,142.71,27.83l74.05,147.14,75-147.14S320,51.5,441.07,74.29h-6c-15.22,0-25.11,9-29.67,14.41s-6.82,21-6.82,34.15V296.71q0,20.13,7.05,28.07c4.7,5.28,8.24,7.93,23.18,7.93h6.93v12.78H283V332.71h6c15.1,0,18.64-2.71,23.2-8.14S319,309.86,319,296.71V123.92L206.59,356.76l-8.29,17-9.19-17L76.24,144.86V279.58c0,13.6,1,23.58,2.9,30S85.6,321.48,92.7,326s15.72,6.74,25.87,6.74v12.78" transform="translate(-7.75 -50.92)"/><path class="cls-1" d="M1186.95,225.91q0-30.81,17.74-60.12t48.1-43.37a152.64,152.64,0,0,1,65-14.07q62.27,0,97.69,34.78t35.42,85.31q0,48-35.32,82.52-22.29,21.77-54.67,29.8a171.73,171.73,0,0,1-41.38,4.74q-41.55,0-73.5-17t-45.49-45.71Q1186.94,254,1186.95,225.91Zm72.71-1.86q0,52.72,14.63,76t43.48,23.32q30.12,0,45.42-21.31t15.31-74.71q0-48.81-14.35-72.91t-45.67-24.08q-29.59,0-44.19,22.39T1259.66,224Z" transform="translate(-7.75 -50.92)"/><path class="cls-1" d="M1643.58,243.26q-17.39-15.75-52.2-22,29.59-7.76,44.29-21.34t14.7-33.26s-1.21-26.74-22.29-41.07c-8.26-5.64-20.88-13.42-37.31-15.89-12.92-2-8-1.7-26-1.7H1440.93c33,0,30.94,52.8,30.94,52.8v137s3.26,47.7-30.79,47.7h123.7c8.65,0,16.69-.37,24.11-1.05q33.13-3.08,49.81-15.33,22.3-16.35,22.27-44.76Q1661,259,1643.58,243.26ZM1533.63,130.84q18.77,0,28.45,2.79c6.42,1.81,11.61,5.9,15.56,12.21s5.93,14.92,5.93,25.84c0,14.59-3.17,24.83-9.42,30.74s-15.78,8.86-28.53,8.86h-12V130.84Zm51.05,182.6Q1576.43,325,1559.9,325c-7.08,0-12.57-1.12-16.44-3.35s-6.49-5-7.84-8.35-2-8.21-2-14.65V232.32h11.31q18.41,0,27.85,3.62t14.78,14q5.37,10.43,5.39,28.85Q1593,301.9,1584.69,313.44Z" transform="translate(-7.75 -50.92)"/><path class="cls-1" d="M840,304.51c0,11.8-2,47.43-6.1,51.43H942.49c14.16-1.53,29.72-3,43.1-8.54,14.59-6.09,22.79-12.17,30.34-20.51-1.63-1.88-.92,1.24,0,0-1.73-8.61-8.11-56.26,3.09-70.3,1.57-2,2.88-2.1,5.46.55,5.16,5.3,6.54,12.35,12.44,35.13,3,9.47,3.13,9.69,3.27,9.3,7.69-15,15.78-41.68,16.63-60.25,0.11-2.27.14-4.6,0.14-6.9,0,0,15.69-125.7-121.26-125.7l-101.93,1.57c7.32,7.32,6.27,51.61,6.27,51.61V304.51ZM901.8,130.45c100.81,0,94.14,103.57,94.14,103.57,0,32.81-5.44,60.78-16.3,77.23s-27.15,24.68-49,24.68q-13.22,0-19.58-3.94c-4.23-2.62-6.85-5.77-7.83-9.49s-1.47-14.23-1.47-25V130.45Z" transform="translate(-7.75 -50.92)"/><path class="cls-1" d="M734.45,109v11.27c21.69-.24,33.45,24.49,33.71,49.42l0.13,83.87L647,124.45c-18.47-20.69-55.14-13.48-73.66-14.35-12.88-.6,18.24,7.51,18.52,13.4,8.66,4.31,7.53,4.66,15,13,2.67,3,5,5.33,6.05,11.47-2.36.71-5.55-3-7.09-2.1,0.37,4.21,3,7.21,3.12,11.09,0.06,1.73-.94,3-1,4.84-0.11,2.14,1.22,4.21.35,6.24,2.36,10.21,14.58,10.47,3.47,16.63,1.19,1.63,3.24,3.89,3.11,6.21-0.05,1.11-1.77,2.47-1.72,3.5,0,1.21,1.82,1.85,1.72,3.11-0.17,2.23-3.15,2.38-3.11,4.48,7,12.26-11.21,9.9-16.28,13.87-0.95.74-1.29,3.05-2.44,4.87a4.43,4.43,0,0,1-.28.37L593,244.93a0.15,0.15,0,0,1,0,.07c2.22,3.64,2.22,8.48,2,13.44,10.83,36.09,4.1,66.53,2.67,87.05-1.22,17.59,19.24,4.68,19.24,4.68a143.63,143.63,0,0,1,57.29-16.94s-39.24-11.26-39.65-48.1l-1-89.25L765.24,351.07a126.4,126.4,0,0,0,26.34,4.67l0-185.62s-4.27-49.85,26.46-49.85V109H734.45Z" transform="translate(-7.75 -50.92)"/><path class="cls-1" d="M453.29,109.8v13.56h0c27.12,0,24.85,42.07,24.85,42.07V304.75q0,16.83-6.19,22.37c-4.11,3.72-6.15,5.58-18.68,5.58v12.78H530.8c-0.62-8.45-8-20.94-6.69-26.76,1.95-8.8,3.57-43.83,3.57-43.83-9.82-22.25,8.23-42.38,12.23-46.43h0c7.63-24.87,0-34.23,0-34.23v-0.12a62,62,0,0,1-6.13-8.73c-2.56-4.81-5.27-10.66-5.89-17-1.24-12.7,3.18-25.15,9.35-32.93,4.14-5.2,3.1-4.15,6.57-7.64,2.86-2.85,2.86-2.85,5.87-4.49h0V109.8H453.29Z" transform="translate(-7.75 -50.92)"/><path class="cls-1" d="M1072.19,66.57c-23.32,3.15-35.87,9.32-35.87,9.32s35.16-3.52,39.38,14.07c1.49,6.22,3.52,9.32,3.57,29.05h0.05l0.24,177.7c1-1.06,6.27-11,7.65-12.83,5.67-7.45,8.75-10.12,13.43-9,0,0,3.13,31.72-19,53.66-3.43,3.4-2.11,13.72-2.11,13.72,0.09,3.57,5,11,7.35,13.7,3.82,4.45,4.59,10.54,4.08,17.19,0,0-.47,4.15,1.7,17.48,2.34,14.42,7,19.45,9.16,31.5,0,0,4.37,11.65,4.61,22.3,0.14,6.17-1.43,9.47-4.4,12.83-4.75,5.27-14.94,8.44-23.91,7.21-13-1.41-18.79-10.3-27.66-20.63-10.08-11.72-12.78-17.35-23.33-20.16-9.24-2.46-15.48-1.14-21.8,5.27-7.62,7.74-8.85,14.82-7.74,25,1.88,17.11,14.75,33.75,23.09,42,16.55,14.3,29.77,22.51,59,26a45.72,45.72,0,0,0,5.47.19c44.15,0,76.45-24.34,79.94-75.73V118.26h0c0.08-12.74,2.34-23.72,6.8-29s10-10.53,25.14-10.53A76.19,76.19,0,0,1,1199,66c2.28-10,5.79-15.08,5.79-15.08C1135.13,64.28,1108.17,61.7,1072.19,66.57Z" transform="translate(-7.75 -50.92)"/><path class="cls-1" d="M1689.8,52.73c-12.3,0-22.43,9.6-22.43,21.43S1677.5,95.5,1689.8,95.5s22.45-9.6,22.45-21.34S1702.15,52.73,1689.8,52.73Zm0,38.85c-10.2,0-18.51-7.84-18.51-17.44s8.31-17.49,18.51-17.49,18.58,7.82,18.58,17.49S1700,91.59,1689.78,91.59Z" transform="translate(-7.75 -50.92)"/><path class="cls-1" d="M1686.41,75.7V85.83H1683V62.41h7.66a8,8,0,0,1,5.42,1.69,6.31,6.31,0,0,1,1.9,5,6.06,6.06,0,0,1-.89,3.22,5.77,5.77,0,0,1-2.59,2.08,4.4,4.4,0,0,1,2.64,2A6.57,6.57,0,0,1,1698,80v2a5.52,5.52,0,0,0,.29,2,2.38,2.38,0,0,0,.77,1.44v0.39h-3.58a2.54,2.54,0,0,1-.72-1.58,17.94,17.94,0,0,1-.15-2.26V80a4.63,4.63,0,0,0-.91-3.11,3.29,3.29,0,0,0-2.57-1.17h-4.68Zm0-2.49h4a4.12,4.12,0,0,0,3.1-1.05,4.22,4.22,0,0,0,1-3,4.46,4.46,0,0,0-1-3.13,3.63,3.63,0,0,0-2.9-1.1h-4.22V73.2Z" transform="translate(-7.75 -50.92)"/></svg>